<?xml version="1.0" encoding="UTF-8" standalone="no"?>
<!-- Created with Inkscape (http://www.inkscape.org/) -->

<svg
   xmlns:dc="http://purl.org/dc/elements/1.1/"
   xmlns:cc="http://creativecommons.org/ns#"
   xmlns:rdf="http://www.w3.org/1999/02/22-rdf-syntax-ns#"
   xmlns:svg="http://www.w3.org/2000/svg"
   xmlns="http://www.w3.org/2000/svg"
   xmlns:sodipodi="http://sodipodi.sourceforge.net/DTD/sodipodi-0.dtd"
   xmlns:inkscape="http://www.inkscape.org/namespaces/inkscape"
   width="188.72615mm"
   height="125.89004mm"
   viewBox="0 0 188.72615 125.89004"
   version="1.1"
   id="svg2894"
   inkscape:version="0.92.5 (2060ec1f9f, 2020-04-08)"
   sodipodi:docname="AWS-2025.svg">
  <defs
     id="defs2888" />
  <sodipodi:namedview
     id="base"
     pagecolor="#ffffff"
     bordercolor="#666666"
     borderopacity="1.0"
     inkscape:pageopacity="0.0"
     inkscape:pageshadow="2"
     inkscape:zoom="1.8011585"
     inkscape:cx="356.64784"
     inkscape:cy="237.90243"
     inkscape:document-units="mm"
     inkscape:current-layer="layer1"
     showgrid="false"
     inkscape:snap-global="false"
     showguides="false"
     inkscape:snap-smooth-nodes="true"
     inkscape:guide-bbox="true"
     inkscape:window-width="1920"
     inkscape:window-height="1009"
     inkscape:window-x="-8"
     inkscape:window-y="-8"
     inkscape:window-maximized="1" />
  <metadata
     id="metadata2891">
    <rdf:RDF>
      <cc:Work
         rdf:about="">
        <dc:format>image/svg+xml</dc:format>
        <dc:type
           rdf:resource="http://purl.org/dc/dcmitype/StillImage" />
        <dc:title></dc:title>
      </cc:Work>
    </rdf:RDF>
  </metadata>
  <g
     inkscape:label="Layer 1"
     inkscape:groupmode="layer"
     id="layer1"
     transform="translate(-9.7006735,-78.530852)">
    <path
       style="fill:#ff6200;fill-opacity:1;fill-rule:nonzero;stroke:none;stroke-width:4.27425146"
       inkscape:connector-curvature="0"
       d="m 10.521436,158.58651 c -0.8639499,0.68218 -1.0458582,1.81869 -0.5456504,3.41042 0.4546904,1.40966 1.5232644,3.15991 3.2056994,5.25165 6.774981,8.36685 14.846046,15.32363 24.213078,20.87116 9.367011,5.54757 19.393561,9.63973 30.07919,12.27696 10.730944,2.68292 21.68927,4.02419 32.874997,4.02419 14.32341,0 27.96469,-2.09139 40.92381,-6.27503 12.95911,-4.1379 23.78106,-9.95814 32.46635,-17.46073 3.04626,-2.68254 4.56962,-4.81967 4.56962,-6.41138 0,-0.59114 -0.25004,-1.18228 -0.75013,-1.7734 -0.68217,-0.68173 -1.50071,-0.90913 -2.45559,-0.68173 -0.95487,0.22696 -2.29613,0.79544 -4.02421,1.70499 -8.32111,4.3653 -18.46089,7.84367 -30.41984,10.4356 -11.9132,2.63719 -24.34953,3.9558 -37.30866,3.9558 -16.051079,0 -31.556792,-2.18243 -46.516673,-6.54773 -14.959881,-4.36528 -28.21475,-11.18571 -39.764223,-20.46157 -1.682328,-1.3186 -3.046678,-2.1602 -4.092375,-2.52394 -1.000341,-0.36374 -1.818827,-0.29535 -2.455393,0.20474 z"
       id="Path" />
    <path
       style="fill:#ff6200;fill-opacity:1;fill-rule:nonzero;stroke:none;stroke-width:4.27425146"
       inkscape:connector-curvature="0"
       d="m 162.07277,162.00078 c -0.95486,0.90957 -1.20492,1.86444 -0.75012,2.86499 0.31841,0.72745 0.93222,1.13648 1.84178,1.22752 0.90913,0.13638 2.20509,0.0454 3.88743,-0.27267 2.72824,-0.59113 5.57018,-1.00058 8.52582,-1.22797 2.95565,-0.1816 5.52493,-0.1364 7.70736,0.1364 2.18285,0.31842 3.54677,0.8642 4.0926,1.63697 0.81852,1.22797 0.52274,3.81943 -0.88691,7.77571 -1.36391,3.9558 -3.22837,7.79793 -5.59286,11.52678 -0.90957,1.50025 -1.45496,2.68251 -1.63703,3.54677 -0.18162,0.86382 0.0458,1.5913 0.68214,2.18242 0.40904,0.40906 0.86384,0.61379 1.3639,0.61379 1.31907,0 3.22879,-1.15961 5.72964,-3.47837 4.50166,-3.91052 7.66161,-8.54851 9.48075,-13.91399 1.00017,-2.77399 1.61393,-5.6839 1.84133,-8.73054 0.2274,-3.04617 -0.1137,-5.22904 -1.02325,-6.54765 -0.86383,-1.27329 -2.77356,-2.31919 -5.7292,-3.13728 -2.90991,-0.81853 -5.84292,-1.228 -8.79856,-1.228 -5.77494,0 -11.2541,1.36433 -16.4375,4.0926 -1.9097,1.0459 -3.342,2.02342 -4.29732,2.93255 z"
       id="path6" />
    <path
       inkscape:connector-curvature="0"
       id="path3494"
       style="fill:#161d26;fill-opacity:1;fill-rule:nonzero;stroke:none;stroke-width:1.11680579"
       d="m 38.073132,137.60541 c -9.649207,0 -16.189218,-6.86166 -16.189218,-17.04692 0,-12.32954 9.649195,-20.0489 24.873493,-20.0489 2.68034,0 4.288537,0.10721 5.575101,0.42885 v -1.286561 c 0,-7.076077 -2.465907,-10.399692 -7.612154,-10.399692 -4.074104,0 -6.968866,2.358694 -8.040998,6.540015 -0.321644,1.28656 -1.072131,1.929836 -2.144263,1.715414 l -9.434784,-1.715414 c -1.286554,-0.214426 -1.82262,-1.072134 -1.500987,-2.358694 2.358696,-9.541988 10.399694,-14.902656 22.085953,-14.902656 13.830522,0 21.121032,7.612148 21.121032,21.871528 v 34.20105 c 0,1.07215 -0.750498,1.82263 -1.715408,1.82263 H 56.19218 c -1.072131,0 -1.715408,-0.64327 -1.92983,-1.82263 l -1.393776,-6.32559 h -0.643287 c -2.573118,6.00396 -7.612144,9.32757 -14.152155,9.32757 z m 5.575091,-10.82855 c 5.682312,0 8.684285,-5.14624 8.684285,-14.68822 v -3.43083 c -1.072142,-0.21443 -2.251485,-0.32165 -3.538049,-0.32165 -7.397721,0 -12.007892,3.9669 -12.007892,10.50691 0,4.8246 2.68034,7.93379 6.861656,7.93379 z" />
    <path
       inkscape:connector-curvature="0"
       id="path3502"
       style="fill:#161d26;fill-opacity:1;fill-rule:nonzero;stroke:none;stroke-width:1.11680579"
       d="m 129.74105,79.817412 c -0.7505,0 -1.39378,0.64328 -1.50099,1.28656 l -6.32559,38.275168 h -0.64329 l -7.07607,-38.275168 c -0.10721,-0.64328 -0.75049,-1.28656 -1.50099,-1.28656 h -10.93576 c -0.7505,0 -1.39377,0.64328 -1.50099,1.28656 L 93.074078,119.37914 H 92.430801 L 85.998,81.103972 c -0.107211,-0.64328 -0.750498,-1.28656 -1.500986,-1.28656 h -11.79347 c -1.179353,0 -1.929841,0.857707 -1.608197,2.037054 L 83.746515,135.1395 c 0.214433,0.7505 0.750499,1.28656 1.608209,1.28656 H 98.64918 c 0.750488,0 1.39376,-0.64327 1.50098,-1.28656 l 6.75444,-31.52073 h 0.53606 l 6.75445,31.52073 c 0.10721,0.64329 0.7505,1.28656 1.50098,1.28656 h 13.29446 c 0.85771,0 1.39378,-0.53606 1.6082,-1.28656 l 12.65118,-53.285034 c 0.32164,-1.179347 -0.42886,-2.037054 -1.6082,-2.037054 z" />
    <path
       inkscape:connector-curvature="0"
       id="path3510"
       style="fill:#161d26;fill-opacity:1;fill-rule:nonzero;stroke:none;stroke-width:1.11680579"
       d="m 145.03872,119.27192 c -0.10721,-0.96492 0.53606,-1.7154 1.50098,-1.92984 l 9.54199,-1.82262 c 1.07214,-0.21443 1.92984,0.42885 2.03706,1.50099 0.8577,6.11116 3.85967,9.22034 8.89871,9.22034 4.50296,0 7.39772,-2.25147 7.39772,-5.89673 0,-3.2164 -2.03706,-5.46788 -6.32559,-6.4328 l -6.75444,-1.6082 c -10.18528,-2.46591 -15.33151,-7.93379 -15.33151,-16.510858 0,-10.292482 8.36264,-17.26135 20.47775,-17.26135 11.04298,0 18.22627,5.146241 20.79939,15.009869 0.21442,0.857708 -0.42885,1.715414 -1.17935,1.822627 l -10.50691,1.822624 c -0.64327,0.107222 -1.39377,-0.321636 -1.50098,-1.072129 -0.85771,-4.181321 -3.43083,-6.218376 -7.61215,-6.218376 -3.75247,0 -6.43281,2.037055 -6.43281,5.039029 0,2.680331 2.14428,4.717383 6.32559,5.682304 l 7.07609,1.71542 c 10.18526,2.46591 15.00987,7.82658 15.00987,16.72528 0,10.72134 -9.00592,18.54791 -21.33546,18.54791 -12.43675,0 -20.90661,-7.18329 -22.08595,-18.33349 z" />
  </g>
</svg>
