<?xml version="1.0" encoding="UTF-8" standalone="no"?>
<svg
   xmlns:dc="http://purl.org/dc/elements/1.1/"
   xmlns:cc="http://creativecommons.org/ns#"
   xmlns:rdf="http://www.w3.org/1999/02/22-rdf-syntax-ns#"
   xmlns:svg="http://www.w3.org/2000/svg"
   xmlns="http://www.w3.org/2000/svg"
   viewBox="0 0 531.53333 213.98666"
   height="213.98666"
   width="531.53333"
   xml:space="preserve"
   id="svg2"
   version="1.1"><metadata
     id="metadata8"><rdf:RDF><cc:Work
         rdf:about=""><dc:format>image/svg+xml</dc:format><dc:type
           rdf:resource="http://purl.org/dc/dcmitype/StillImage" /></cc:Work></rdf:RDF></metadata><defs
     id="defs6" /><g
     transform="matrix(1.3333333,0,0,-1.3333333,0,213.98667)"
     id="g10"><g
       transform="scale(0.1)"
       id="g12"><path
         id="path14"
         style="fill:#ed1639;fill-opacity:1;fill-rule:nonzero;stroke:none"
         d="m 1630.4,1073.84 c -34.18,10.43 -71.65,16.71 -116.19,16.29 -55.17,-0.67 -109.49,-10.92 -165.63,-28.52 -19.18,-4.27 -37.81,-6.97 -55.85,-7.56 -41.34,0.02 -70.71,12.45 -86.07,33.54 -18.92,26.47 -16.8,66.7 9.87,113.18 10.52,17.75 20.94,30.73 34.57,45.22 l -0.52,0.02 c 38.58,36.09 69.81,74.51 94.24,116.81 83.31,123.13 44.17,237.65 -111.1,239.6 -155.42,-3.36 -304.931,-79.89 -421.865,-230.2 -121.066,-150.39 -83.042,-292.79 69.54,-296.27 39.742,-0.51 82.371,7.93 128.385,23.69 18.13,4.28 32.51,6.56 48.41,6.68 29.16,-0.25 52.26,-8.27 67.82,-21.93 29,-25.67 31,-71.32 -1.71,-125.593 -8.85,-14.602 -18.16,-25.504 -29.62,-37.918 -50.41,-42.688 -92.96,-88.227 -126.629,-139.281 -30.922,-47.442 -48.485,-90.45 -54.852,-131.102 -0.508,1.082 -0.523,0.535 -0.496,1.602 -5.808,-19.465 -11.933,-30.442 -23.488,-47.09 -41.856,-59.887 -71.863,-69.156 -136.059,-102.18 -25.676,-9.168 -86.441,-30.488 -107.121,-30.476 -19.601,0.507 -22.25,0.589 -39.547,7.918 -25.515,17.652 -57.586,27.48 -98.902,29.101 C 352.848,511.82 188.316,453.84 58.0117,295.57 -44.7109,159.828 -13.5352,0.0117188 171.723,0.261719 208.406,-3.41016 468.863,31.4492 591.453,209.77 c 34.606,46.269 54.27,88.699 62.727,128.23 6.215,14.699 11.785,24.621 21.129,37.621 29.679,40.039 64.613,56.07 110.867,81.359 46.254,25.282 95.191,51.211 141.859,52.122 22.25,-0.59 35.969,-3.614 50.133,-9.274 33.932,-19.43 78.182,-30.68 136.462,-31.668 111.75,1.649 276.83,8.988 471.26,159.395 0.54,0.508 102.7,87.304 136.03,155.508 23.27,38.078 35.82,72.218 40.42,106.015 0.6,2.633 1.77,6.844 2.99,13.176 6.23,35.355 8.57,124.356 -134.93,171.586" /><path
         id="path16"
         style="fill:#231f20;fill-opacity:1;fill-rule:nonzero;stroke:none"
         d="m 2150.08,647.137 v 17.812 H 2034.23 V 478.352 h 19.93 v 82.289 h 81.77 v 17.82 h -81.77 v 68.676 z m 130.53,-104.309 c 0,19.91 -2.62,38.004 -15.73,51.363 -8.92,8.899 -21.22,14.672 -36.96,14.672 -15.72,0 -28.03,-5.773 -36.96,-14.672 -13.09,-13.359 -15.72,-31.453 -15.72,-51.363 0,-19.93 2.63,-38.019 15.72,-51.379 8.93,-8.898 21.24,-14.679 36.96,-14.679 15.74,0 28.04,5.781 36.96,14.679 13.11,13.36 15.73,31.449 15.73,51.379 m -18.88,0 c 0,-14.43 -0.78,-30.406 -10.21,-39.848 -6.04,-6.031 -14.43,-9.429 -23.6,-9.429 -9.17,0 -17.29,3.398 -23.32,9.429 -9.44,9.442 -10.49,25.418 -10.49,39.848 0,14.402 1.05,30.391 10.49,39.82 6.03,6.043 14.15,9.442 23.32,9.442 9.17,0 17.56,-3.399 23.6,-9.442 9.43,-9.429 10.21,-25.418 10.21,-39.82 m 145.62,53.973 c -9.16,9.183 -18.6,12.062 -30.92,12.062 -14.94,0 -29.09,-6.543 -36.17,-17.293 v 15.723 h -18.87 V 478.352 h 18.87 V 557.5 c 0,19.66 12.06,34.59 30.93,34.59 9.96,0 15.2,-2.352 22.28,-9.442 z m 123.16,-80.723 c 0,24.113 -15.45,32.762 -38.01,34.863 l -20.7,1.84 c -16.25,1.309 -22.54,7.86 -22.54,18.867 0,13.102 9.96,21.243 28.84,21.243 13.36,0 25.16,-3.153 34.33,-10.243 l 12.32,12.332 c -11.53,9.43 -28.05,13.883 -46.4,13.883 -27.52,0 -47.43,-14.152 -47.43,-37.734 0,-21.238 13.37,-32.508 38.53,-34.609 l 21.23,-1.829 c 14.93,-1.312 21.49,-7.601 21.49,-18.859 0,-15.223 -13.1,-22.812 -34.33,-22.812 -16,0 -29.88,4.191 -40.11,14.949 l -12.57,-12.59 c 14.14,-13.641 31.18,-18.609 52.94,-18.609 31.18,0 52.41,14.41 52.41,39.308 m 131.86,-20.18 -12.84,12.321 c -9.69,-10.75 -17.3,-14.668 -29.61,-14.668 -12.59,0 -23.07,4.969 -29.89,14.668 -6.01,8.39 -8.39,18.351 -8.39,34.609 0,16.242 2.38,26.203 8.39,34.594 6.82,9.699 17.3,14.668 29.89,14.668 12.31,0 19.92,-3.668 29.61,-14.41 l 12.84,12.058 c -13.37,14.41 -24.63,19.125 -42.45,19.125 -32.5,0 -57.14,-22.011 -57.14,-66.035 0,-44.039 24.64,-66.058 57.14,-66.058 17.82,0 29.08,4.718 42.45,19.128 m 137.48,-17.546 v 82.82 c 0,29.09 -17.32,47.691 -46.41,47.691 -14.4,0 -26.73,-4.972 -36.16,-15.722 v 71.808 h -18.87 V 478.352 h 18.87 v 79.668 c 0,22.289 12.85,34.07 32.24,34.07 19.39,0 31.44,-11.531 31.44,-34.07 v -79.668 z m 145.46,0 v 128.941 h -18.87 v -79.414 c 0,-22.551 -12.85,-34.328 -32.25,-34.328 -19.38,0 -31.44,11.519 -31.44,34.328 v 79.414 h -18.88 V 525 c 0,-14.93 3.94,-27.262 13.11,-36.172 7.87,-7.859 19.4,-12.058 33.28,-12.058 14.42,0 27.26,5.5 36.43,15.98 v -14.398 z m 147.82,0 v 82.546 c 0,14.954 -4.2,27 -13.36,35.903 -7.88,7.859 -19.14,12.062 -33.04,12.062 -14.41,0 -26.99,-5.242 -36.16,-15.722 v 14.152 h -18.88 V 478.352 h 18.88 v 79.398 c 0,22.559 12.58,34.34 31.97,34.34 19.4,0 31.72,-11.531 31.72,-34.34 v -79.398 z m 141.74,-3.942 v 132.883 h -18.62 V 592.09 c -10.47,13.629 -22.01,16.773 -36.16,16.773 -13.09,0 -24.63,-4.453 -31.45,-11.261 -12.83,-12.852 -15.73,-32.762 -15.73,-53.731 0,-20.973 2.9,-40.891 15.73,-53.742 6.82,-6.809 18.08,-11.527 31.19,-11.527 13.89,0 25.69,3.418 36.17,16.777 v -20.18 c 0,-22.019 -10.48,-39.59 -35.38,-39.59 -14.94,0 -21.48,4.461 -30.94,12.852 l -12.3,-12.063 c 13.62,-12.32 24.37,-17.289 43.77,-17.289 33.81,0 53.72,23.332 53.72,55.301 M 3216,543.871 c 0,-24.121 -3.94,-48.23 -31.98,-48.23 -28.03,0 -32.24,24.109 -32.24,48.23 0,24.109 4.21,48.219 32.24,48.219 28.04,0 31.98,-24.11 31.98,-48.219 m 299.83,63.422 h -20.43 l -29.36,-103.531 -34.07,103.531 h -16.24 l -33.82,-103.531 -29.62,103.531 h -20.45 l 40.89,-128.941 h 17.57 l 33.54,100.109 33.81,-100.109 h 17.57 z m 51.88,57.93 h -21.23 v -21.231 h 21.23 z m -1.3,-57.93 h -18.87 V 478.34 h 18.87 z m 132.22,-10.492 c -9.18,9.183 -18.62,12.062 -30.93,12.062 -14.94,0 -29.09,-6.543 -36.17,-17.293 v 15.723 h -18.87 V 478.352 h 18.87 V 557.5 c 0,19.66 12.05,34.59 30.92,34.59 9.97,0 15.21,-2.352 22.28,-9.442 z m 138.49,-118.449 -51.37,79.668 43.77,49.273 h -23.59 l -58.19,-67.102 v 124.758 h -18.87 V 478.352 h 18.87 v 37.207 l 25.15,28.839 40.9,-66.046 z m 86.6,0 v 16.25 h -9.97 c -12.05,0 -17.56,7.07 -17.56,18.859 v 78.629 h 27.53 v 14.422 h -27.53 v 40.371 h -18.87 v -40.371 h -16.24 V 592.09 h 16.24 v -79.149 c 0,-19.132 11,-34.589 33.03,-34.589 z m 62.76,24.628 h -24.63 v -24.628 h 24.63 v 24.628" /><path
         id="path18"
         style="fill:#231f20;fill-opacity:1;fill-rule:nonzero;stroke:none"
         d="M 2541.88,1464.07 V 1598.4 H 2033.82 V 827.117 h 150.58 v 313.053 h 304.39 V 1274.5 H 2184.4 v 189.57 z m 676.94,0 V 1598.4 H 2710.76 V 827.117 h 150.57 v 313.053 h 304.41 v 134.33 h -304.41 v 189.57 z m 701.97,-320.65 v 112.67 h -291.42 v -125.67 h 141.91 v -29.24 c 0,-40.09 -9.74,-74.75 -34.66,-102.918 -24.92,-27.09 -61.75,-43.332 -107.25,-43.332 -41.16,0 -74.75,15.168 -96.42,40.086 -29.23,32.494 -36.81,69.324 -36.81,217.734 0,148.4 7.58,184.16 36.81,216.66 21.67,24.91 55.26,41.16 96.42,41.16 76.91,0 121.34,-40.09 138.66,-112.66 h 151.66 c -20.57,130 -111.57,246.99 -290.32,246.99 -86.66,0 -153.82,-30.34 -207.98,-84.5 -78.01,-78 -75.83,-174.41 -75.83,-307.65 0,-133.24 -2.18,-229.656 75.83,-307.656 54.16,-54.16 123.49,-84.492 207.98,-84.492 82.33,0 156.01,23.832 217.74,87.746 54.16,56.328 73.68,123.502 73.68,235.072" /></g></g></svg>